<svg width="132" height="129" viewBox="0 0 132 129" fill="none" xmlns="http://www.w3.org/2000/svg">
<g filter="url(#filter0_d_1_67)">
<path d="M4 62C4 66.4183 7.58172 70 12 70C16.4183 70 20 66.4183 20 62C20 57.5817 16.4183 54 12 54C7.58172 54 4 57.5817 4 62ZM112 62C112 66.4183 115.582 70 120 70C124.418 70 128 66.4183 128 62C128 57.5817 124.418 54 120 54C115.582 54 112 57.5817 112 62ZM12 63.5L120 63.5L120 60.5L12 60.5L12 63.5Z" fill="white"/>
<path d="M66 121C70.4183 121 74 117.418 74 113C74 108.582 70.4183 105 66 105C61.5817 105 58 108.582 58 113C58 117.418 61.5817 121 66 121ZM66 16C70.4183 16 74 12.4183 74 8C74 3.58172 70.4183 -1.13249e-06 66 -1.13249e-06C61.5817 -1.13249e-06 58 3.58172 58 8C58 12.4183 61.5817 16 66 16ZM67.5 113L67.5 8H64.5L64.5 113H67.5Z" fill="white"/>
<g clip-path="url(#clip0_1_67)">
<path d="M89.3757 42.8313C88.0051 41.9593 87.0371 40.5786 86.6845 38.9928C86.332 37.4071 86.6238 35.7463 87.4958 34.3757C88.3678 33.0051 89.7485 32.0371 91.3342 31.6845C92.92 31.332 94.5808 31.6238 95.9514 32.4958C97.322 33.3678 98.29 34.7485 98.6426 36.3342C98.9951 37.92 98.7033 39.5808 97.8313 40.9514C96.9593 42.322 95.5786 43.29 93.9929 43.6426C92.4071 43.9951 90.7463 43.7033 89.3757 42.8313ZM88.906 43.5696C90.4724 44.5661 92.3705 44.8996 94.1828 44.4967C95.995 44.0938 97.573 42.9874 98.5696 41.4211C99.5661 39.8547 99.8996 37.9566 99.4967 36.1443C99.0938 34.3321 97.9874 32.7541 96.4211 31.7575C94.8547 30.761 92.9566 30.4275 91.1443 30.8304C89.3321 31.2333 87.7541 32.3396 86.7575 33.906C85.761 35.4724 85.4275 37.3705 85.8304 39.1828C86.2333 40.995 87.3396 42.573 88.906 43.5696Z" fill="#F26464"/>
<path d="M94.8501 36.0948C94.9062 36.0823 94.9643 36.0809 95.021 36.0908C95.0777 36.1008 95.1319 36.1218 95.1804 36.1527C95.229 36.1836 95.2709 36.2237 95.304 36.2709C95.337 36.318 95.3603 36.3712 95.3728 36.4274L95.5458 37.2084L96.3266 37.0342C96.44 37.009 96.5588 37.0299 96.6568 37.0922C96.7548 37.1546 96.824 37.2534 96.8493 37.3668C96.8745 37.4802 96.8536 37.599 96.7912 37.697C96.7289 37.795 96.6301 37.8642 96.5167 37.8894L95.7357 38.0625L95.9099 38.8433C95.9351 38.9567 95.9142 39.0755 95.8519 39.1735C95.7895 39.2715 95.6907 39.3407 95.5773 39.3659C95.4639 39.3912 95.3451 39.3703 95.2471 39.3079C95.1491 39.2456 95.0799 39.1468 95.0547 39.0334L94.8816 38.2523L94.1008 38.4266C94.0447 38.4391 93.9866 38.4404 93.93 38.4304C93.8733 38.4204 93.8192 38.3994 93.7706 38.3685C93.7221 38.3377 93.6801 38.2975 93.6471 38.2504C93.6141 38.2033 93.5906 38.1502 93.5782 38.094C93.5657 38.0379 93.5644 37.9798 93.5743 37.9231C93.5843 37.8665 93.6053 37.8123 93.6362 37.7638C93.6671 37.7153 93.7072 37.6733 93.7543 37.6403C93.8014 37.6072 93.8545 37.5838 93.9107 37.5713L94.6918 37.3983L94.5175 36.6175C94.505 36.5614 94.5036 36.5033 94.5135 36.4466C94.5235 36.3899 94.5445 36.3357 94.5754 36.2872C94.6063 36.2386 94.6464 36.1967 94.6936 36.1636C94.7407 36.1306 94.7939 36.1073 94.8501 36.0948ZM91.1588 33.7464C91.215 33.7338 91.2731 33.7325 91.3297 33.7424C91.3864 33.7523 91.4406 33.7733 91.4892 33.8042C91.5377 33.8351 91.5797 33.8753 91.6127 33.9224C91.6457 33.9695 91.6691 34.0227 91.6815 34.0789L91.8545 34.86L92.6353 34.6858C92.6915 34.6733 92.7495 34.672 92.8062 34.6819C92.8629 34.6919 92.917 34.7129 92.9655 34.7438C93.0141 34.7747 93.056 34.8148 93.0891 34.8619C93.1221 34.909 93.1455 34.9622 93.158 35.0183C93.1705 35.0745 93.1718 35.1325 93.1618 35.1892C93.1519 35.2458 93.1309 35.3 93.1 35.3485C93.0691 35.3971 93.029 35.439 92.9819 35.4721C92.9348 35.5051 92.8816 35.5285 92.8255 35.541L92.0444 35.714L92.2186 36.4948C92.2311 36.551 92.2324 36.609 92.2225 36.6657C92.2125 36.7223 92.1915 36.7765 92.1606 36.825C92.1297 36.8736 92.0896 36.9155 92.0425 36.9486C91.9954 36.9816 91.9422 37.005 91.8861 37.0175C91.8299 37.03 91.7719 37.0313 91.7152 37.0213C91.6585 37.0114 91.6044 36.9904 91.5559 36.9595C91.5073 36.9286 91.4654 36.8885 91.4323 36.8414C91.3993 36.7943 91.3759 36.7411 91.3634 36.685L91.1904 35.9039L90.4096 36.0781C90.3534 36.0906 90.2954 36.0919 90.2387 36.0819C90.182 36.072 90.1279 36.051 90.0794 36.0201C90.0308 35.9892 89.9889 35.9491 89.9558 35.902C89.9228 35.8549 89.8994 35.8017 89.8869 35.7456C89.8744 35.6894 89.8731 35.6314 89.8831 35.5747C89.893 35.518 89.914 35.4639 89.9449 35.4154C89.9758 35.3668 90.0159 35.3248 90.063 35.2918C90.1101 35.2588 90.1633 35.2354 90.2194 35.2229L91.0005 35.0499L90.8263 34.2691C90.8137 34.2129 90.8124 34.1548 90.8223 34.0981C90.8322 34.0415 90.8532 33.9873 90.8841 33.9387C90.915 33.8902 90.9552 33.8482 91.0023 33.8152C91.0494 33.7822 91.1026 33.7588 91.1588 33.7464ZM92.731 40.8177C92.4818 41.2093 92.0873 41.4859 91.6343 41.5866C91.1812 41.6873 90.7067 41.6039 90.3151 41.3548C89.9235 41.1057 89.6469 40.7112 89.5462 40.2581C89.4455 39.805 89.5288 39.3305 89.778 38.9389C90.0271 38.5473 90.4216 38.2707 90.8747 38.17C91.3277 38.0693 91.8023 38.1527 92.1939 38.4018C92.5854 38.6509 92.862 39.0454 92.9628 39.4985C93.0635 39.9516 92.9801 40.4261 92.731 40.8177Z" fill="#F26464"/>
</g>
<path d="M103.417 86.5439C103.463 86.4943 103.52 86.4567 103.582 86.4341C103.644 86.4114 103.71 86.4044 103.775 86.4136L111.268 87.4772C111.333 87.4864 111.395 87.5115 111.448 87.5505C111.501 87.5895 111.545 87.6414 111.576 87.702L113.553 91.5817C113.654 91.7636 113.627 91.9997 113.481 92.1546L105.99 100.132C105.943 100.181 105.887 100.219 105.824 100.242C105.762 100.264 105.696 100.271 105.632 100.262C105.567 100.253 105.506 100.228 105.452 100.189C105.399 100.15 105.355 100.098 105.324 100.037L100.339 90.2731C100.296 90.1886 100.28 90.091 100.294 89.995C100.307 89.8989 100.35 89.8096 100.415 89.7404L103.417 86.5439ZM112.42 91.2497L111.22 88.8967L110.27 90.9472L112.42 91.2497ZM109.394 90.8239L110.571 88.2839L104.22 87.3825L104.645 90.1551L109.394 90.8239ZM104.786 91.0808L105.901 98.3674L109.001 91.6746L104.786 91.0808ZM103.77 90.0319L103.426 87.7896L101.607 89.7276L103.77 90.0319ZM101.479 90.616L104.877 97.2722L103.911 90.9585L101.48 90.6161L101.479 90.616ZM107.188 97.6002L112.314 92.1422L109.876 91.7979L107.188 97.6002Z" fill="#63B4FF"/>
<g clip-path="url(#clip1_1_67)">
<path d="M43.5772 42.8693C42.1656 43.6731 40.4924 43.8831 38.9259 43.4533C37.3593 43.0234 36.0277 41.9889 35.2239 40.5772C34.4202 39.1656 34.2101 37.4924 34.64 35.9259C35.0698 34.3593 36.1044 33.0277 37.516 32.2239C38.9277 31.4202 40.6008 31.2101 42.1674 31.64C43.7339 32.0698 45.0656 33.1044 45.8693 34.516C46.6731 35.9277 46.8831 37.6008 46.4533 39.1674C46.0234 40.7339 44.9889 42.0656 43.5772 42.8693ZM44.0102 43.6297C45.6235 42.7111 46.8058 41.1893 47.2971 39.3989C47.7884 37.6086 47.5483 35.6964 46.6297 34.0831C45.7111 32.4698 44.1893 31.2874 42.3989 30.7961C40.6086 30.3049 38.6964 30.545 37.0831 31.4635C35.4697 32.3821 34.2874 33.904 33.7961 35.6943C33.3049 37.4847 33.545 39.3968 34.4635 41.0102C35.3821 42.6235 36.904 43.8058 38.6943 44.2971C40.4847 44.7884 42.3968 44.5483 44.0102 43.6297Z" fill="#8AF88F"/>
<path d="M43.9265 37.3027C43.989 37.2446 44.0671 37.2061 44.1512 37.1918C44.2354 37.1776 44.3218 37.1882 44.4 37.2225C44.4781 37.2568 44.5446 37.3131 44.5911 37.3847C44.6376 37.4562 44.6622 37.5398 44.6618 37.6251C44.6578 38.3164 44.4718 38.9945 44.1225 39.5911C43.7732 40.1877 43.2729 40.6818 42.672 41.0236C42.0713 41.3659 41.3911 41.544 40.6998 41.5399C40.0085 41.5358 39.3304 41.3497 38.7339 41.0003C38.6603 40.9571 38.601 40.8933 38.5632 40.8168C38.5254 40.7403 38.5108 40.6544 38.5213 40.5697C38.5317 40.485 38.5666 40.4052 38.6218 40.3401C38.677 40.275 38.75 40.2275 38.8319 40.2034L38.8357 40.2013L38.8508 40.1977L38.9082 40.1801L39.1237 40.1128C39.3071 40.0547 39.562 39.972 39.8485 39.8703C40.4291 39.6646 41.1106 39.3954 41.5896 39.1226C42.0686 38.8499 42.6487 38.4008 43.1212 38.0069C43.3745 37.7954 43.6233 37.5785 43.8675 37.3565L43.9119 37.316L43.9231 37.3056L43.9261 37.302L43.9265 37.3027ZM36.5804 35.9998C36.5441 34.5867 39.5852 34.1681 38.7911 38.1988C34.6814 38.9317 35.1434 35.9481 36.5804 35.9998ZM41.5138 33.1909C42.2028 31.9286 45.0044 33.0541 42.2767 36.2142C38.4059 34.8396 40.3179 32.438 41.5138 33.1909Z" fill="#8AF88F"/>
</g>
<g clip-path="url(#clip2_1_67)">
<path d="M42.5 81C40.5109 81 38.6032 81.7902 37.1967 83.1967C35.7902 84.6032 35 86.5109 35 88.5C35 90.4891 35.7902 92.3968 37.1967 93.8033C38.6032 95.2098 40.5109 96 42.5 96C44.4891 96 46.3968 95.2098 47.8033 93.8033C49.2098 92.3968 50 90.4891 50 88.5C50 86.5109 49.2098 84.6032 47.8033 83.1967C46.3968 81.7902 44.4891 81 42.5 81ZM39.4588 85.2806C40.1741 83.9456 43.2275 85.1681 40.3513 88.5C36.1363 87.0038 38.1481 84.4706 39.4588 85.2806ZM45.6078 90.3881C45.6968 90.3672 45.79 90.3727 45.8759 90.404C45.9618 90.4354 46.0366 90.4911 46.0912 90.5645C46.1458 90.6378 46.1778 90.7255 46.1832 90.8168C46.1886 90.908 46.1671 90.9989 46.1216 91.0781C45.7514 91.7197 45.2187 92.2525 44.5772 92.6228C43.9357 92.9931 43.2079 93.1878 42.4672 93.1875C41.7265 93.1878 40.9987 92.9931 40.3572 92.6228C39.7157 92.2525 39.183 91.7197 38.8128 91.0781C38.7672 90.9989 38.7458 90.908 38.7512 90.8168C38.7566 90.7255 38.7886 90.6378 38.8432 90.5645C38.8978 90.4911 38.9726 90.4354 39.0585 90.404C39.1444 90.3727 39.2376 90.3672 39.3266 90.3881H39.3312L39.3472 90.3928L39.41 90.4069L39.6462 90.4584C39.8478 90.5016 40.1291 90.5597 40.4497 90.6169C41.0994 90.7331 41.8766 90.8438 42.4672 90.8438C43.0578 90.8438 43.8359 90.7331 44.4847 90.6169C44.8327 90.5543 45.1793 90.4842 45.5244 90.4069L45.5872 90.3928L45.6031 90.3891L45.6078 90.3872V90.3881ZM45.5422 85.2806C46.8519 84.4706 48.8637 87.0038 44.6487 88.5C41.7734 85.1681 44.8278 83.9456 45.5422 85.2806Z" fill="#75B587"/>
</g>
<path fill-rule="evenodd" clip-rule="evenodd" d="M81.5596 76.6465C83.4119 72.4234 92.5577 75.8003 84.7464 86.4831C72.1549 82.4109 77.5828 74.3118 81.5596 76.6465Z" fill="#953232"/>
<path d="M55.4408 48.9602C55.9818 49.8727 56.1381 50.9628 55.8754 51.9906C55.6127 53.0184 54.9524 53.8998 54.0398 54.4408C53.1273 54.9818 52.0372 55.1381 51.0094 54.8754C49.9816 54.6127 49.1002 53.9524 48.5592 53.0398C48.0182 52.1273 47.8619 51.0372 48.1246 50.0094C48.3873 48.9816 49.0476 48.1002 49.9602 47.5592C50.8727 47.0182 51.9628 46.8619 52.9906 47.1246C54.0184 47.3873 54.8998 48.0476 55.4408 48.9602ZM52.3902 50.1874C52.7463 49.9763 52.9211 49.6123 52.7803 49.3749C52.6396 49.1375 52.2363 49.1161 51.8802 49.3272C51.5241 49.5384 51.3493 49.9024 51.49 50.1398C51.6308 50.3772 52.034 50.3986 52.3902 50.1874ZM50.3788 49.8017C50.321 49.7693 50.2526 49.7611 50.1888 49.779C50.125 49.7969 50.0709 49.8394 50.0384 49.8972C49.8447 50.2415 49.7452 50.6308 49.7498 51.0258C49.7544 51.4208 49.8629 51.8077 50.0646 52.1474C50.2659 52.4873 50.5532 52.7681 50.8976 52.9617C51.2419 53.1553 51.6312 53.2548 52.0262 53.2502C52.0592 53.2501 52.0918 53.2434 52.1221 53.2306C52.1525 53.2178 52.1801 53.1991 52.2032 53.1756C52.2263 53.1521 52.2446 53.1242 52.2569 53.0936C52.2692 53.063 52.2753 53.0303 52.2749 52.9974C52.2746 52.9644 52.2677 52.9318 52.2547 52.9015C52.2416 52.8712 52.2228 52.8438 52.1991 52.8209C52.1754 52.7979 52.1475 52.7798 52.1168 52.7677C52.0861 52.7556 52.0534 52.7497 52.0204 52.7503C51.7132 52.7539 51.4104 52.6766 51.1425 52.526C50.8747 52.3754 50.6512 52.1569 50.4947 51.8924C50.3378 51.6282 50.2533 51.3273 50.2497 51.02C50.2461 50.7128 50.3236 50.41 50.4742 50.1422C50.5067 50.0844 50.5149 50.016 50.497 49.9522C50.4791 49.8883 50.4366 49.8342 50.3788 49.8017ZM53.1161 51.1736C53.1326 51.1453 53.1434 51.1139 53.1478 51.0814C53.1523 51.0489 53.1503 51.0158 53.1419 50.984C53.1336 50.9523 53.119 50.9225 53.0992 50.8963C53.0793 50.8702 53.0545 50.8482 53.0261 50.8317C52.9978 50.8151 52.9664 50.8043 52.9339 50.7999C52.9014 50.7955 52.8683 50.7975 52.8365 50.8058C52.8048 50.8142 52.775 50.8287 52.7488 50.8486C52.7227 50.8685 52.7007 50.8933 52.6842 50.9216C52.5124 51.2153 52.4953 51.5904 52.6812 51.904C52.8674 52.218 53.2042 52.3821 53.5445 52.3728C53.5773 52.3719 53.6096 52.3645 53.6396 52.3511C53.6696 52.3377 53.6966 52.3186 53.7192 52.2947C53.7417 52.2709 53.7594 52.2428 53.7711 52.2121C53.7828 52.1815 53.7884 52.1488 53.7875 52.116C53.7866 52.0831 53.7792 52.0508 53.7658 52.0209C53.7524 51.9909 53.7333 51.9638 53.7094 51.9413C53.6856 51.9187 53.6575 51.9011 53.6268 51.8893C53.5962 51.8776 53.5635 51.8721 53.5307 51.873C53.4471 51.8766 53.3641 51.8577 53.2904 51.8183C53.2166 51.7789 53.1548 51.7205 53.1113 51.649C53.0695 51.5766 53.0478 51.4943 53.0487 51.4107C53.0495 51.327 53.0728 51.2452 53.1161 51.1736Z" fill="#AB68FF"/>
<g clip-path="url(#clip3_1_67)">
<path d="M80.0401 51.9696C81.0929 51.1633 81.7823 49.9719 81.9566 48.6573C82.1309 47.3427 81.7759 46.0127 80.9696 44.9599C80.1633 43.9071 78.9719 43.2177 77.6573 43.0434C76.3427 42.8691 75.0127 43.2241 73.9599 44.0304C72.9071 44.8367 72.2177 46.0281 72.0434 47.3427C71.8691 48.6573 72.2241 49.9873 73.0304 51.0401C73.8367 52.0929 75.0281 52.7823 76.3427 52.9566C77.6573 53.1309 78.9873 52.7759 80.0401 51.9696ZM73.1289 48.7942C73.0546 48.7351 72.9947 48.6598 72.9538 48.574C72.9129 48.4883 72.8921 48.3943 72.8929 48.2993C72.8938 48.2043 72.9163 48.1108 72.9587 48.0258C73.0012 47.9408 73.0625 47.8666 73.1379 47.8088L74.4876 46.7752C74.6192 46.6744 74.7854 46.63 74.9497 46.6518C75.114 46.6736 75.263 46.7598 75.3638 46.8914L75.4078 46.949C75.5406 46.7856 75.6923 46.6387 75.86 46.5114C76.0336 46.3784 76.2175 46.269 76.4003 46.1889L76.3562 46.1314C76.2554 45.9998 76.211 45.8335 76.2328 45.6692C76.2546 45.5049 76.3408 45.356 76.4724 45.2552L77.822 44.2215C77.8975 44.1638 77.9851 44.124 78.0782 44.1051C78.1713 44.0863 78.2675 44.089 78.3594 44.1129C78.4514 44.1368 78.5367 44.1814 78.6088 44.2432C78.6809 44.3051 78.738 44.3825 78.7757 44.4697L79.0934 45.2042C79.2041 45.46 79.2262 45.7455 79.1561 46.0152C79.086 46.285 78.9277 46.5236 78.7064 46.6931L78.4886 46.86C78.2392 47.051 77.9271 47.1412 77.6142 47.1125C77.3014 47.0839 77.0108 46.9384 76.8003 46.7052C76.5976 46.7732 76.4081 46.8755 76.24 47.0076C76.045 47.1569 75.8971 47.3206 75.802 47.4698C75.9723 47.7338 76.037 48.0522 75.9831 48.3617C75.9293 48.6712 75.7609 48.9491 75.5114 49.14L75.2941 49.3065C75.0727 49.4759 74.8011 49.5665 74.5224 49.5639C74.2436 49.5613 73.9738 49.4655 73.7557 49.2919L73.1289 48.7942ZM76.161 50.0202C76.5156 50.1676 76.9028 50.219 77.2835 50.1692C77.6643 50.1195 78.0252 49.9703 78.33 49.7367C78.6351 49.5033 78.8734 49.1937 79.0207 48.839C79.1681 48.4843 79.2194 48.097 79.1695 47.7162C79.1639 47.6753 79.1664 47.6338 79.1769 47.594C79.1874 47.5541 79.2057 47.5167 79.2307 47.484C79.2557 47.4512 79.287 47.4237 79.3227 47.4031C79.3583 47.3825 79.3977 47.3691 79.4386 47.3638C79.4795 47.3584 79.521 47.3612 79.5608 47.372C79.6005 47.3827 79.6378 47.4013 79.6704 47.4265C79.703 47.4517 79.7303 47.4832 79.7506 47.519C79.771 47.5548 79.7842 47.5943 79.7892 47.6352C79.8533 48.1248 79.7874 48.6227 79.5979 49.0787C79.4085 49.5348 79.1022 49.9328 78.71 50.2329C78.3181 50.5333 77.854 50.7252 77.3643 50.7893C76.8747 50.8533 76.3768 50.7873 75.9208 50.5977C75.8448 50.5656 75.7846 50.5047 75.7534 50.4283C75.7221 50.3519 75.7223 50.2663 75.754 50.1901C75.7856 50.1139 75.8461 50.0533 75.9223 50.0215C75.9985 49.9898 76.0846 49.989 76.161 50.0202Z" fill="#5A6BFF"/>
</g>
<g clip-path="url(#clip4_1_67)">
<path d="M20.4062 78.5219C20.4062 79.6256 20.1507 80.6302 19.7337 81.38C19.5572 81.247 19.3561 81.1503 19.142 81.0955C18.9278 81.0407 18.705 81.0288 18.4863 81.0606C18.2509 80.2351 17.7213 79.3457 16.9412 78.5647C16.8087 78.4321 16.6711 78.3048 16.5284 78.1831C17.2132 77.8517 17.9643 77.6801 18.725 77.6813C19.3059 77.6813 19.864 77.7796 20.3836 77.9603C20.3987 78.1444 20.4062 78.3319 20.4062 78.5219ZM20.4062 82.725C20.4062 82.7864 20.4029 82.8477 20.3962 82.9074C21.2519 82.8914 22.2455 82.6107 23.1963 82.0617C23.36 81.9671 23.5199 81.8658 23.6754 81.7583C23.4195 80.4479 22.6547 79.2923 21.5487 78.5446C21.5146 78.7253 21.4739 78.9048 21.4268 79.0826C21.141 80.1493 20.6332 81.0547 20.0347 81.6709C20.2675 81.9592 20.4062 82.3265 20.4062 82.725ZM20.2911 83.337C20.21 83.544 20.0888 83.7329 19.9344 83.8929C19.78 84.0529 19.5956 84.1808 19.3916 84.2692C19.8329 85.0006 20.5727 85.7193 21.5226 86.2674C21.6907 86.3649 21.8605 86.454 22.0312 86.5339C22.5323 86.0999 22.9427 85.5712 23.2389 84.9782C23.5351 84.3851 23.7111 83.7394 23.757 83.0781C23.5821 83.1394 23.4031 83.1958 23.2181 83.2453C22.1556 83.5303 21.1225 83.5446 20.2911 83.3378V83.337ZM18.725 84.4063C18.3467 84.4063 17.997 84.281 17.7162 84.07C17.301 84.8182 17.0471 85.8202 17.0471 86.9206C17.0471 87.1139 17.0555 87.3047 17.0698 87.4905C17.6021 87.6752 18.1616 87.7693 18.725 87.7688C19.5152 87.7688 20.2633 87.5872 20.93 87.2627C20.7856 87.14 20.6462 87.0116 20.5122 86.8777C19.7346 86.0993 19.205 85.2124 18.9688 84.3894C18.8898 84.4004 18.8082 84.4063 18.725 84.4063ZM17.0437 82.725C17.0437 82.6577 17.048 82.5905 17.0555 82.5241C16.1981 82.5384 15.2019 82.8191 14.2478 83.3706C14.0847 83.4648 13.9254 83.5654 13.7704 83.6724C13.8949 84.3233 14.1465 84.9434 14.5106 85.4971C14.8748 86.0508 15.3445 86.5274 15.8929 86.8995C15.9271 86.715 15.9686 86.5319 16.0173 86.3506C16.3032 85.2855 16.8075 84.3819 17.4044 83.7657C17.17 83.4695 17.0429 83.1027 17.0437 82.725ZM14.2302 82.1937C15.2952 81.9079 16.3301 81.8953 17.1623 82.1038C17.327 81.6885 17.6524 81.3556 18.0617 81.1791C17.6213 80.4444 16.8798 79.7223 15.9257 79.1717C15.7628 79.0776 15.5963 78.9901 15.4264 78.9094C14.9247 79.3424 14.5135 79.8702 14.2163 80.4625C13.9192 81.0548 13.7419 81.7 13.6947 82.361C13.8679 82.2988 14.0461 82.2433 14.2302 82.1937ZM18.725 83.5656C18.9479 83.5656 19.1618 83.4771 19.3194 83.3194C19.4771 83.1618 19.5656 82.9479 19.5656 82.725C19.5656 82.5021 19.4771 82.2882 19.3194 82.1306C19.1618 81.9729 18.9479 81.8844 18.725 81.8844C18.5021 81.8844 18.2882 81.9729 18.1306 82.1306C17.9729 82.2882 17.8844 82.5021 17.8844 82.725C17.8844 82.9479 17.9729 83.1618 18.1306 83.3194C18.2882 83.4771 18.5021 83.5656 18.725 83.5656Z" fill="#5451FF"/>
<path d="M18.725 88.6094C17.1644 88.6094 15.6677 87.9894 14.5641 86.8859C13.4606 85.7823 12.8406 84.2856 12.8406 82.725C12.8406 81.1644 13.4606 79.6677 14.5641 78.5641C15.6677 77.4606 17.1644 76.8406 18.725 76.8406C20.2856 76.8406 21.7823 77.4606 22.8859 78.5641C23.9894 79.6677 24.6094 81.1644 24.6094 82.725C24.6094 84.2856 23.9894 85.7823 22.8859 86.8859C21.7823 87.9894 20.2856 88.6094 18.725 88.6094ZM18.725 89.45C20.5086 89.45 22.2191 88.7415 23.4803 87.4803C24.7415 86.2191 25.45 84.5086 25.45 82.725C25.45 80.9414 24.7415 79.2309 23.4803 77.9697C22.2191 76.7085 20.5086 76 18.725 76C16.9414 76 15.2309 76.7085 13.9697 77.9697C12.7085 79.2309 12 80.9414 12 82.725C12 84.5086 12.7085 86.2191 13.9697 87.4803C15.2309 88.7415 16.9414 89.45 18.725 89.45Z" fill="#5451FF"/>
</g>
<path d="M44.8217 8.32653C44.8057 8.26974 44.777 8.21649 44.7376 8.16997C44.6981 8.12345 44.6486 8.08464 44.5921 8.05587C44.5356 8.02711 44.4732 8.00898 44.4087 8.00259C44.3442 7.9962 44.279 8.00167 44.2169 8.01869C44.1548 8.0357 44.0972 8.0639 44.0475 8.10158C43.9978 8.13926 43.9571 8.18565 43.9278 8.23794C43.8985 8.29023 43.8812 8.34734 43.877 8.40582C43.8728 8.46431 43.8817 8.52296 43.9033 8.57824L44.2972 9.75171C43.4141 10.5624 42.9198 11.6547 42.9214 12.7922H52.5286C52.5302 11.6547 52.0359 10.5624 51.1528 9.75171L51.5467 8.57824C51.5683 8.52296 51.5772 8.46431 51.573 8.40582C51.5688 8.34734 51.5515 8.29023 51.5222 8.23794C51.4929 8.18565 51.4522 8.13926 51.4025 8.10158C51.3528 8.0639 51.2952 8.0357 51.2331 8.01869C51.171 8.00167 51.1058 7.9962 51.0413 8.00259C50.9768 8.00898 50.9144 8.02711 50.8579 8.05587C50.8014 8.08464 50.7519 8.12345 50.7124 8.16997C50.673 8.21649 50.6443 8.26974 50.6283 8.32653L50.3487 9.15629C49.5687 8.69575 48.6568 8.45109 47.725 8.45238C46.7932 8.45114 45.8813 8.69579 45.1013 9.15629L44.8217 8.32653Z" fill="#8F3B3B"/>
<path d="M52.5286 12.7922V13.6601H48.2054V21.45C49.3902 21.3424 50.4886 20.841 51.2874 20.0432C52.0863 19.2453 52.5286 18.2078 52.5286 17.1319H53.0089C53.1363 17.1319 53.2585 17.1776 53.3486 17.259C53.4387 17.3404 53.4893 17.4508 53.4893 17.5659V17.9999C53.4893 18.115 53.5399 18.2254 53.63 18.3068C53.7201 18.3881 53.8422 18.4339 53.9696 18.4339C54.097 18.4339 54.2192 18.3881 54.3093 18.3068C54.3994 18.2254 54.45 18.115 54.45 17.9999V17.5659C54.45 17.2206 54.2982 16.8895 54.0279 16.6453C53.7577 16.4011 53.3911 16.264 53.0089 16.264H52.5286V15.396H53.9696C54.097 15.396 54.2192 15.3503 54.3093 15.2689C54.3994 15.1875 54.45 15.0771 54.45 14.962C54.45 14.8469 54.3994 14.7366 54.3093 14.6552C54.2192 14.5738 54.097 14.5281 53.9696 14.5281H52.5286V13.6601H53.0089C53.3911 13.6601 53.7577 13.5229 54.0279 13.2788C54.2982 13.0346 54.45 12.7035 54.45 12.3582V11.9242C54.45 11.8091 54.3994 11.6987 54.3093 11.6173C54.2192 11.5359 54.097 11.4902 53.9696 11.4902C53.8422 11.4902 53.7201 11.5359 53.63 11.6173C53.5399 11.6987 53.4893 11.8091 53.4893 11.9242V12.3582C53.4893 12.4733 53.4387 12.5837 53.3486 12.665C53.2585 12.7464 53.1363 12.7922 53.0089 12.7922H52.5286ZM47.2446 21.45V13.6601H42.9214V12.7922H42.4411C42.3137 12.7922 42.1915 12.7464 42.1014 12.665C42.0113 12.5837 41.9607 12.4733 41.9607 12.3582V11.9242C41.9607 11.8091 41.9101 11.6987 41.82 11.6173C41.7299 11.5359 41.6078 11.4902 41.4804 11.4902C41.353 11.4902 41.2308 11.5359 41.1407 11.6173C41.0506 11.6987 41 11.8091 41 11.9242V12.3582C41 12.7035 41.1518 13.0346 41.4221 13.2788C41.6923 13.5229 42.0589 13.6601 42.4411 13.6601H42.9214V14.5281H41.4804C41.353 14.5281 41.2308 14.5738 41.1407 14.6552C41.0506 14.7366 41 14.8469 41 14.962C41 15.0771 41.0506 15.1875 41.1407 15.2689C41.2308 15.3503 41.353 15.396 41.4804 15.396H42.9214V16.264H42.4411C42.0589 16.264 41.6923 16.4011 41.4221 16.6453C41.1518 16.8895 41 17.2206 41 17.5659V17.9999C41 18.115 41.0506 18.2254 41.1407 18.3068C41.2308 18.3881 41.353 18.4339 41.4804 18.4339C41.6078 18.4339 41.7299 18.3881 41.82 18.3068C41.9101 18.2254 41.9607 18.115 41.9607 17.9999V17.5659C41.9607 17.4508 42.0113 17.3404 42.1014 17.259C42.1915 17.1776 42.3137 17.1319 42.4411 17.1319H42.9214C42.9214 18.2078 43.3637 19.2453 44.1626 20.0432C44.9614 20.841 46.0598 21.3424 47.2446 21.45Z" fill="#8F3B3B"/>
</g>
<defs>
<filter id="filter0_d_1_67" x="0" y="-1.19209e-06" width="132" height="129" filterUnits="userSpaceOnUse" color-interpolation-filters="sRGB">
<feFlood flood-opacity="0" result="BackgroundImageFix"/>
<feColorMatrix in="SourceAlpha" type="matrix" values="0 0 0 0 0 0 0 0 0 0 0 0 0 0 0 0 0 0 127 0" result="hardAlpha"/>
<feOffset dy="4"/>
<feGaussianBlur stdDeviation="2"/>
<feComposite in2="hardAlpha" operator="out"/>
<feColorMatrix type="matrix" values="0 0 0 0 0 0 0 0 0 0 0 0 0 0 0 0 0 0 0.25 0"/>
<feBlend mode="normal" in2="BackgroundImageFix" result="effect1_dropShadow_1_67"/>
<feBlend mode="normal" in="SourceGraphic" in2="effect1_dropShadow_1_67" result="shape"/>
</filter>
<clipPath id="clip0_1_67">
<rect width="14" height="14" fill="white" transform="translate(90.5151 28) rotate(32.4654)"/>
</clipPath>
<clipPath id="clip1_1_67">
<rect width="14" height="14" fill="white" transform="translate(31 34.9271) rotate(-29.656)"/>
</clipPath>
<clipPath id="clip2_1_67">
<rect width="15" height="15" fill="white" transform="translate(35 81)"/>
</clipPath>
<clipPath id="clip3_1_67">
<rect width="10" height="10" fill="white" transform="translate(69.9903 47.0705) rotate(-37.4462)"/>
</clipPath>
<clipPath id="clip4_1_67">
<rect width="13.45" height="13.45" fill="white" transform="translate(12 76)"/>
</clipPath>
</defs>
</svg>
