<svg xmlns="http://www.w3.org/2000/svg" width="33" height="33" viewBox="0 0 33 33" fill="none">
  <path d="M19.5953 5.07026C19.5953 5.35895 19.7099 5.63582 19.9141 5.83995C20.1182 6.04408 20.3951 6.15877 20.6838 6.15877C20.9725 6.15877 21.2494 6.04408 21.4536 5.83995C21.6577 5.63582 21.7724 5.35895 21.7724 5.07026V1.08851C21.7724 0.799816 21.6577 0.52295 21.4536 0.318816C21.2494 0.114682 20.9725 0 20.6838 0C20.3951 0 20.1182 0.114682 19.9141 0.318816C19.7099 0.52295 19.5953 0.799816 19.5953 1.08851V5.07026ZM29.3925 5.14646C29.5907 4.94116 29.7005 4.6662 29.698 4.3808C29.6955 4.0954 29.581 3.82239 29.3792 3.62057C29.1774 3.41875 28.9043 3.30427 28.6189 3.30179C28.3335 3.29931 28.0585 3.40903 27.8532 3.60731L25.0381 6.42218C24.9342 6.5226 24.8512 6.64271 24.7942 6.77551C24.7371 6.90831 24.7071 7.05114 24.7059 7.19568C24.7046 7.34021 24.7321 7.48354 24.7869 7.61731C24.8416 7.75109 24.9224 7.87262 25.0246 7.97482C25.1269 8.07703 25.2484 8.15785 25.3822 8.21258C25.516 8.26731 25.6593 8.29485 25.8039 8.2936C25.9484 8.29234 26.0912 8.26231 26.224 8.20527C26.3569 8.14822 26.477 8.0653 26.5774 7.96133L29.3925 5.14646ZM14.7903 7.96133C14.8907 8.0653 15.0108 8.14822 15.1436 8.20527C15.2764 8.26231 15.4193 8.29234 15.5638 8.2936C15.7084 8.29485 15.8517 8.26731 15.9855 8.21258C16.1193 8.15785 16.2408 8.07703 16.343 7.97482C16.4452 7.87262 16.5261 7.75109 16.5808 7.61731C16.6355 7.48354 16.6631 7.34021 16.6618 7.19568C16.6606 7.05114 16.6305 6.90831 16.5735 6.77551C16.5164 6.64271 16.4335 6.5226 16.3295 6.42218L13.5145 3.60731C13.3092 3.40903 13.0342 3.29931 12.7488 3.30179C12.4633 3.30427 12.1903 3.41875 11.9885 3.62057C11.7866 3.82239 11.6722 4.0954 11.6697 4.3808C11.6672 4.6662 11.7769 4.94116 11.9752 5.14646L14.7903 7.96133ZM13.4383 13.4039C13.727 13.4039 14.0039 13.2892 14.208 13.085C14.4121 12.8809 14.5268 12.604 14.5268 12.3154C14.5268 12.0267 14.4121 11.7498 14.208 11.5457C14.0039 11.3415 13.727 11.2268 13.4383 11.2268H9.45624C9.16753 11.2268 8.89065 11.3415 8.6865 11.5457C8.48235 11.7498 8.36766 12.0267 8.36766 12.3154C8.36766 12.604 8.48235 12.8809 8.6865 13.085C8.89065 13.2892 9.16753 13.4039 9.45624 13.4039H13.4383ZM31.9114 13.4039C32.2001 13.4039 32.477 13.2892 32.6812 13.085C32.8853 12.8809 33 12.604 33 12.3154C33 12.0267 32.8853 11.7498 32.6812 11.5457C32.477 11.3415 32.2001 11.2268 31.9114 11.2268H27.9294C27.6407 11.2268 27.3638 11.3415 27.1597 11.5457C26.9555 11.7498 26.8408 12.0267 26.8408 12.3154C26.8408 12.604 26.9555 12.8809 27.1597 13.085C27.3638 13.2892 27.6407 13.4039 27.9294 13.4039H31.9114ZM27.8532 21.0234C27.9536 21.1274 28.0737 21.2103 28.2066 21.2673C28.3394 21.3244 28.4822 21.3544 28.6267 21.3557C28.7713 21.3569 28.9146 21.3294 29.0484 21.2747C29.1822 21.2199 29.3037 21.1391 29.4059 21.0369C29.5082 20.9347 29.589 20.8132 29.6437 20.6794C29.6985 20.5456 29.726 20.4023 29.7247 20.2577C29.7235 20.1132 29.6935 19.9704 29.6364 19.8376C29.5794 19.7048 29.4964 19.5847 29.3925 19.4843L26.5774 16.6694C26.477 16.5654 26.3569 16.4825 26.224 16.4254C26.0912 16.3684 25.9484 16.3384 25.8039 16.3371C25.6593 16.3359 25.516 16.3634 25.3822 16.4181C25.2484 16.4729 25.1269 16.5537 25.0246 16.6559C24.9224 16.7581 24.8416 16.8796 24.7869 17.0134C24.7321 17.1472 24.7046 17.2905 24.7059 17.435C24.7071 17.5796 24.7371 17.7224 24.7942 17.8552C24.8512 17.988 24.9342 18.1081 25.0381 18.2085L27.8532 21.0234ZM19.5953 23.5422C19.5953 23.8309 19.7099 24.1078 19.9141 24.3119C20.1182 24.516 20.3951 24.6307 20.6838 24.6307C20.9725 24.6307 21.2494 24.516 21.4536 24.3119C21.6577 24.1078 21.7724 23.8309 21.7724 23.5422V19.5604C21.7724 19.2718 21.6577 18.9949 21.4536 18.7908C21.2494 18.5866 20.9725 18.4719 20.6838 18.4719C20.3951 18.4719 20.1182 18.5866 19.9141 18.7908C19.7099 18.9949 19.5953 19.2718 19.5953 19.5604V23.5422ZM23.6317 12.446C23.8351 12.2419 23.9493 11.9656 23.9493 11.6775C23.9493 11.3894 23.8351 11.113 23.6317 10.909L22.0903 9.36768C21.8861 9.16362 21.6093 9.04898 21.3206 9.04898C21.032 9.04898 20.7552 9.16362 20.551 9.36768L17.736 12.1847C17.5319 12.3889 17.4172 12.6657 17.4172 12.9543C17.4172 13.2429 17.5319 13.5198 17.736 13.7239L19.2774 15.2652C19.4815 15.4693 19.7584 15.5839 20.047 15.5839C20.3357 15.5839 20.6125 15.4693 20.8166 15.2652L23.6317 12.4503V12.446ZM17.1002 18.977C17.3036 18.773 17.4179 18.4966 17.4179 18.2085C17.4179 17.9204 17.3036 17.6441 17.1002 17.44L15.5588 15.8987C15.3547 15.6947 15.0778 15.58 14.7892 15.58C14.5005 15.58 14.2237 15.6947 14.0196 15.8987L0.318721 29.6008C0.114644 29.805 0 30.0818 0 30.3704C0 30.659 0.114644 30.9359 0.318721 31.14L1.86015 32.6813C2.06429 32.8854 2.34112 33 2.62977 33C2.91842 33 3.19526 32.8854 3.3994 32.6813L17.1002 18.977Z" fill="#C8FF70"/>
</svg>