<svg xmlns="http://www.w3.org/2000/svg" width="30" height="30" viewBox="0 0 30 30" fill="none">
  <g clip-path="url(#clip0_1_74)">
    <path d="M26.25 1.875C26.7473 1.875 27.2242 2.07254 27.5758 2.42417C27.9275 2.77581 28.125 3.25272 28.125 3.75V26.25C28.125 26.7473 27.9275 27.2242 27.5758 27.5758C27.2242 27.9275 26.7473 28.125 26.25 28.125H3.75C3.25272 28.125 2.77581 27.9275 2.42417 27.5758C2.07254 27.2242 1.875 26.7473 1.875 26.25V3.75C1.875 3.25272 2.07254 2.77581 2.42417 2.42417C2.77581 2.07254 3.25272 1.875 3.75 1.875H26.25ZM3.75 0C2.75544 0 1.80161 0.395088 1.09835 1.09835C0.395088 1.80161 0 2.75544 0 3.75L0 26.25C0 27.2446 0.395088 28.1984 1.09835 28.9016C1.80161 29.6049 2.75544 30 3.75 30H26.25C27.2446 30 28.1984 29.6049 28.9016 28.9016C29.6049 28.1984 30 27.2446 30 26.25V3.75C30 2.75544 29.6049 1.80161 28.9016 1.09835C28.1984 0.395088 27.2446 0 26.25 0L3.75 0Z" fill="#D3D3D3"/>
    <path d="M9.85312 10.8487C9.85055 10.9093 9.8604 10.9697 9.88205 11.0263C9.90371 11.0829 9.93671 11.1345 9.97904 11.1779C10.0214 11.2213 10.0721 11.2555 10.1282 11.2786C10.1842 11.3016 10.2444 11.313 10.305 11.3119H11.8519C12.1106 11.3119 12.3169 11.1 12.3506 10.8431C12.5194 9.61312 13.3631 8.71688 14.8669 8.71688C16.1531 8.71688 17.3306 9.36 17.3306 10.9069C17.3306 12.0975 16.6294 12.645 15.5212 13.4775C14.2594 14.3944 13.26 15.465 13.3312 17.2031L13.3369 17.61C13.3388 17.733 13.3891 17.8503 13.4768 17.9366C13.5645 18.0229 13.6826 18.0713 13.8056 18.0712H15.3262C15.4506 18.0712 15.5698 18.0219 15.6577 17.934C15.7456 17.846 15.795 17.7268 15.795 17.6025V17.4056C15.795 16.0594 16.3069 15.6675 17.6887 14.6194C18.8306 13.7512 20.0212 12.7875 20.0212 10.7644C20.0212 7.93125 17.6287 6.5625 15.0094 6.5625C12.6337 6.5625 10.0312 7.66875 9.85312 10.8487ZM12.7725 21.6544C12.7725 22.6537 13.5694 23.3925 14.6662 23.3925C15.8081 23.3925 16.5937 22.6537 16.5937 21.6544C16.5937 20.6194 15.8062 19.8919 14.6644 19.8919C13.5694 19.8919 12.7725 20.6194 12.7725 21.6544Z" fill="#FF4B4B"/>
  </g>
  <defs>
    <clipPath id="clip0_1_74">
      <rect width="30" height="30" fill="white"/>
    </clipPath>
  </defs>
</svg>