<svg width="321" height="139" viewBox="0 0 321 139" fill="none" xmlns="http://www.w3.org/2000/svg">
<g filter="url(#filter0_d_1_10)">
<path d="M129.66 22.012C132.222 21.8758 134.732 22.3665 136.88 23.4234C139.027 24.4803 140.719 26.0571 141.744 27.9587L161.425 57.0048C162.654 58.8274 164.069 59.5554 164.855 59.4644L191.604 56.3682C192.802 56.2295 193.989 56.4902 194.905 57.0928C195.82 57.6954 196.389 58.5907 196.486 59.5816C196.583 60.5725 196.2 61.5779 195.422 62.3766C194.643 63.1753 193.533 63.7019 192.335 63.8406L165.586 66.9369C163.018 67.0815 160.499 66.5951 158.344 65.5384C156.188 64.4817 154.492 62.9014 153.465 60.9943L133.82 31.9441C132.581 30.1151 131.213 29.3893 130.391 29.4845C129.596 29.5765 128.405 30.5683 127.553 32.594L95.0442 109.479C94.4096 111.562 93.058 113.477 91.1598 114.982C89.2616 116.488 86.902 117.516 84.3789 117.939C81.8127 118.072 79.2996 117.578 77.1499 116.517C75.0003 115.457 73.3083 113.876 72.2832 111.97L52.6337 82.8754C51.4579 81.1298 50.0167 80.3142 49.2037 80.4083L21.8494 83.5746C20.6514 83.7133 19.464 83.4526 18.5483 82.85C17.6327 82.2474 17.0638 81.3521 16.9668 80.3612C16.8698 79.3703 17.2526 78.3649 18.0311 77.5662C18.8096 76.7674 19.92 76.2408 21.1179 76.1022L48.4361 72.94C51.0079 72.7968 53.5293 73.2862 55.6853 74.347C57.8414 75.4079 59.5365 76.9932 60.559 78.905L80.2084 108C81.4472 109.829 82.8246 110.554 83.6475 110.466C84.4424 110.374 85.6328 109.375 86.4859 107.357L119.021 30.468C119.669 28.395 121.022 26.4899 122.912 24.9874C124.802 23.485 127.148 22.4507 129.66 22.012Z" fill="url(#paint0_linear_1_10)"/>
<path d="M125.051 12.3174C127.613 12.1811 130.123 12.6718 132.271 13.7287C134.419 14.7856 136.11 16.3624 137.136 18.2641L156.817 47.3101C158.046 49.1327 159.46 49.8608 160.246 49.7698L186.995 46.6735C188.193 46.5349 189.381 46.7955 190.296 47.3982C191.212 48.0008 191.781 48.896 191.878 49.8869C191.975 50.8778 191.592 51.8832 190.814 52.682C190.035 53.4807 188.925 54.0073 187.727 54.146L160.978 57.2422C158.409 57.3868 155.89 56.9005 153.735 55.8438C151.58 54.7871 149.883 53.2068 148.857 51.2997L129.212 22.2495C127.973 20.4205 126.605 19.6947 125.783 19.7898C124.988 19.8818 123.797 20.8737 122.944 22.8994L90.4358 99.7848C89.8013 101.867 88.4496 103.782 86.5514 105.287C84.6532 106.793 82.2936 107.822 79.7705 108.244C77.2044 108.377 74.6912 107.883 72.5415 106.823C70.3919 105.762 68.6999 104.181 67.6748 102.276L48.0253 73.1808C46.8495 71.4351 45.4084 70.6195 44.5953 70.7136L17.241 73.8799C16.043 74.0186 14.8556 73.758 13.94 73.1553C13.0243 72.5527 12.4554 71.6575 12.3584 70.6666C12.2614 69.6757 12.6442 68.6703 13.4227 67.8715C14.2012 67.0728 15.3116 66.5462 16.5095 66.4075L43.8277 63.2454C46.3995 63.1022 48.9209 63.5915 51.077 64.6524C53.233 65.7132 54.9281 67.2986 55.9506 69.2103L75.6 98.3054C76.8389 100.134 78.2163 100.859 79.0391 100.771C79.834 100.679 81.0244 99.6801 81.8775 97.6619L114.413 20.7734C115.061 18.7003 116.414 16.7953 118.304 15.2928C120.194 13.7903 122.539 12.7561 125.051 12.3174Z" fill="url(#paint1_linear_1_10)"/>
<path d="M115.045 115V68.4545H133.409C136.939 68.4545 139.947 69.1288 142.432 70.4773C144.917 71.8106 146.811 73.6667 148.114 76.0455C149.432 78.4091 150.091 81.1364 150.091 84.2273C150.091 87.3182 149.424 90.0455 148.091 92.4091C146.758 94.7727 144.826 96.6136 142.295 97.9318C139.78 99.25 136.735 99.9091 133.159 99.9091H121.455V92.0227H131.568C133.462 92.0227 135.023 91.697 136.25 91.0455C137.492 90.3788 138.417 89.4621 139.023 88.2955C139.644 87.1136 139.955 85.7576 139.955 84.2273C139.955 82.6818 139.644 81.3333 139.023 80.1818C138.417 79.0151 137.492 78.1136 136.25 77.4773C135.008 76.8258 133.432 76.5 131.523 76.5H124.886V115H115.045ZM178.833 68.4545H188.674V98.6818C188.674 102.076 187.863 105.045 186.242 107.591C184.636 110.136 182.386 112.121 179.492 113.545C176.598 114.955 173.227 115.659 169.378 115.659C165.515 115.659 162.136 114.955 159.242 113.545C156.348 112.121 154.098 110.136 152.492 107.591C150.886 105.045 150.083 102.076 150.083 98.6818V68.4545H159.924V97.8409C159.924 99.6136 160.31 101.189 161.083 102.568C161.871 103.947 162.977 105.03 164.401 105.818C165.825 106.606 167.484 107 169.378 107C171.287 107 172.947 106.606 174.356 105.818C175.78 105.03 176.878 103.947 177.651 102.568C178.439 101.189 178.833 99.6136 178.833 97.8409V68.4545ZM190.37 115V68.4545H200.211V106.886H220.166V115H190.37ZM245.533 81.8409C245.351 80.0076 244.571 78.5833 243.192 77.5682C241.813 76.553 239.942 76.0455 237.578 76.0455C235.972 76.0455 234.616 76.2727 233.51 76.7273C232.404 77.1667 231.556 77.7803 230.965 78.5682C230.389 79.3561 230.101 80.25 230.101 81.25C230.071 82.0833 230.245 82.8106 230.624 83.4318C231.018 84.053 231.556 84.5909 232.238 85.0455C232.919 85.4848 233.707 85.8712 234.601 86.2045C235.495 86.5227 236.45 86.7955 237.465 87.0227L241.647 88.0227C243.677 88.4773 245.541 89.0833 247.238 89.8409C248.934 90.5985 250.404 91.5303 251.647 92.6364C252.889 93.7424 253.851 95.0455 254.533 96.5455C255.23 98.0455 255.586 99.7652 255.601 101.705C255.586 104.553 254.859 107.023 253.419 109.114C251.995 111.189 249.934 112.803 247.238 113.955C244.556 115.091 241.321 115.659 237.533 115.659C233.775 115.659 230.503 115.083 227.715 113.932C224.942 112.78 222.775 111.076 221.215 108.818C219.669 106.545 218.859 103.735 218.783 100.386H228.306C228.412 101.947 228.859 103.25 229.647 104.295C230.45 105.326 231.518 106.106 232.851 106.636C234.2 107.152 235.722 107.409 237.419 107.409C239.086 107.409 240.533 107.167 241.76 106.682C243.003 106.197 243.965 105.523 244.647 104.659C245.328 103.795 245.669 102.803 245.669 101.682C245.669 100.636 245.359 99.7576 244.738 99.0455C244.131 98.3333 243.238 97.7273 242.056 97.2273C240.889 96.7273 239.457 96.2727 237.76 95.8636L232.692 94.5909C228.768 93.6364 225.669 92.1439 223.397 90.1136C221.124 88.0833 219.995 85.3485 220.01 81.9091C219.995 79.0909 220.745 76.6288 222.26 74.5227C223.791 72.4167 225.889 70.7727 228.556 69.5909C231.222 68.4091 234.253 67.8182 237.647 67.8182C241.101 67.8182 244.116 68.4091 246.692 69.5909C249.283 70.7727 251.298 72.4167 252.738 74.5227C254.177 76.6288 254.919 79.0682 254.965 81.8409H245.533ZM255.82 115V68.4545H287.184V76.5682H265.661V87.6591H285.57V95.7727H265.661V106.886H287.275V115H255.82Z" fill="white"/>
</g>
<defs>
<filter id="filter0_d_1_10" x="0.0856934" y="0" width="324.914" height="138.323" filterUnits="userSpaceOnUse" color-interpolation-filters="sRGB">
<feFlood flood-opacity="0" result="BackgroundImageFix"/>
<feColorMatrix in="SourceAlpha" type="matrix" values="0 0 0 0 0 0 0 0 0 0 0 0 0 0 0 0 0 0 127 0" result="hardAlpha"/>
<feOffset dy="4"/>
<feGaussianBlur stdDeviation="2"/>
<feComposite in2="hardAlpha" operator="out"/>
<feColorMatrix type="matrix" values="0 0 0 0 0 0 0 0 0 0 0 0 0 0 0 0 0 0 0.25 0"/>
<feBlend mode="normal" in2="BackgroundImageFix" result="effect1_dropShadow_1_10"/>
<feBlend mode="normal" in="SourceGraphic" in2="effect1_dropShadow_1_10" result="shape"/>
</filter>
<linearGradient id="paint0_linear_1_10" x1="111.119" y1="114.843" x2="100.761" y2="25.3571" gradientUnits="userSpaceOnUse">
<stop offset="0.130208" stop-color="#B3B3B3"/>
<stop offset="0.479167" stop-color="#962626"/>
<stop offset="1" stop-color="#FF2929"/>
</linearGradient>
<linearGradient id="paint1_linear_1_10" x1="106.511" y1="105.149" x2="96.1524" y2="15.6625" gradientUnits="userSpaceOnUse">
<stop offset="0.130208" stop-color="#B3B3B3"/>
<stop offset="0.479167" stop-color="#962626"/>
<stop offset="1" stop-color="#FF2929"/>
</linearGradient>
</defs>
</svg>
