<svg xmlns="http://www.w3.org/2000/svg" width="46" height="33" viewBox="0 0 46 33" fill="none">
  <path d="M23.5 30.9375C19.6709 30.9375 15.9987 29.4164 13.2911 26.7089C10.5836 24.0013 9.06249 20.3291 9.06249 16.5C9.06249 12.6709 10.5836 8.9987 13.2911 6.29114C15.9987 3.58359 19.6709 2.0625 23.5 2.0625C27.3291 2.0625 31.0013 3.58359 33.7088 6.29114C36.4164 8.9987 37.9375 12.6709 37.9375 16.5C37.9375 20.3291 36.4164 24.0013 33.7088 26.7089C31.0013 29.4164 27.3291 30.9375 23.5 30.9375ZM23.5 33C27.8761 33 32.0729 31.2616 35.1673 28.1673C38.2616 25.0729 45.8055 8.18376 45.8055 3.80769C45.8055 -0.56838 38.2616 7.92709 35.1673 4.83274C32.0729 1.73839 27.8761 0 23.5 0C19.1239 0 14.9271 1.73839 11.8327 4.83274C8.73838 7.92709 0.277771 -2.31357 0.277771 2.0625C0.277771 6.43857 8.73838 25.0729 11.8327 28.1673C14.9271 31.2616 19.1239 33 23.5 33Z" fill="#629364"/>
  <path d="M25.5599 10.4568C25.6557 10.3608 25.7695 10.2846 25.8948 10.2326C26.0201 10.1806 26.1544 10.1539 26.2901 10.1539C26.4257 10.1539 26.56 10.1806 26.6853 10.2326C26.8106 10.2846 26.9244 10.3608 27.0202 10.4568L28.3526 11.7913L29.6849 10.4568C29.8786 10.2632 30.1412 10.1544 30.4151 10.1544C30.6889 10.1544 30.9515 10.2632 31.1452 10.4568C31.3388 10.6505 31.4476 10.9131 31.4476 11.187C31.4476 11.4608 31.3388 11.7234 31.1452 11.9171L29.8107 13.2495L31.1452 14.5818C31.3388 14.7755 31.4476 15.0381 31.4476 15.312C31.4476 15.5858 31.3388 15.8484 31.1452 16.0421C30.9515 16.2357 30.6889 16.3445 30.4151 16.3445C30.1412 16.3445 29.8786 16.2357 29.6849 16.0421L28.3526 14.7077L27.0202 16.0421C26.9243 16.138 26.8105 16.214 26.6852 16.2659C26.5599 16.3178 26.4256 16.3445 26.2901 16.3445C26.1545 16.3445 26.0202 16.3178 25.8949 16.2659C25.7696 16.214 25.6558 16.138 25.5599 16.0421C25.464 15.9462 25.388 15.8324 25.3361 15.7071C25.2842 15.5818 25.2575 15.4476 25.2575 15.312C25.2575 15.1764 25.2842 15.0421 25.3361 14.9168C25.388 14.7915 25.464 14.6777 25.5599 14.5818L26.8944 13.2495L25.5599 11.9171C25.4639 11.8213 25.3877 11.7075 25.3357 11.5822C25.2837 11.4569 25.257 11.3226 25.257 11.187C25.257 11.0513 25.2837 10.917 25.3357 10.7917C25.3877 10.6664 25.4639 10.5526 25.5599 10.4568ZM15.2474 10.4568C15.3432 10.3608 15.457 10.2846 15.5823 10.2326C15.7076 10.1806 15.8419 10.1539 15.9776 10.1539C16.1132 10.1539 16.2475 10.1806 16.3728 10.2326C16.4981 10.2846 16.6119 10.3608 16.7077 10.4568L18.0401 11.7913L19.3724 10.4568C19.4683 10.361 19.5821 10.2849 19.7074 10.233C19.8327 10.1811 19.967 10.1544 20.1026 10.1544C20.2381 10.1544 20.3724 10.1811 20.4977 10.233C20.623 10.2849 20.7368 10.361 20.8327 10.4568C20.9286 10.5527 21.0046 10.6665 21.0565 10.7918C21.1084 10.9171 21.1351 11.0514 21.1351 11.187C21.1351 11.3226 21.1084 11.4568 21.0565 11.5821C21.0046 11.7074 20.9286 11.8212 20.8327 11.9171L19.4982 13.2495L20.8327 14.5818C20.9286 14.6777 21.0046 14.7915 21.0565 14.9168C21.1084 15.0421 21.1351 15.1764 21.1351 15.312C21.1351 15.4476 21.1084 15.5818 21.0565 15.7071C21.0046 15.8324 20.9286 15.9462 20.8327 16.0421C20.7368 16.138 20.623 16.214 20.4977 16.2659C20.3724 16.3178 20.2381 16.3445 20.1026 16.3445C19.967 16.3445 19.8327 16.3178 19.7074 16.2659C19.5821 16.214 19.4683 16.138 19.3724 16.0421L18.0401 14.7077L16.7077 16.0421C16.6118 16.138 16.498 16.214 16.3727 16.2659C16.2474 16.3178 16.1131 16.3445 15.9776 16.3445C15.842 16.3445 15.7077 16.3178 15.5824 16.2659C15.4571 16.214 15.3433 16.138 15.2474 16.0421C15.1515 15.9462 15.0755 15.8324 15.0236 15.7071C14.9717 15.5818 14.945 15.4476 14.945 15.312C14.945 15.1764 14.9717 15.0421 15.0236 14.9168C15.0755 14.7915 15.1515 14.6777 15.2474 14.5818L16.5819 13.2495L15.2474 11.9171C15.1514 11.8213 15.0752 11.7075 15.0232 11.5822C14.9712 11.4569 14.9445 11.3226 14.9445 11.187C14.9445 11.0513 14.9712 10.917 15.0232 10.7917C15.0752 10.6664 15.1514 10.5526 15.2474 10.4568ZM27.3213 22.5307C27.3213 23.6247 26.8867 24.6739 26.1131 25.4475C25.3395 26.2211 24.2903 26.6557 23.1963 26.6557C22.1023 26.6557 21.0531 26.2211 20.2795 25.4475C19.5059 24.6739 19.0713 23.6247 19.0713 22.5307C19.0713 21.4367 19.5059 20.3875 20.2795 19.6139C21.0531 18.8403 22.1023 18.4057 23.1963 18.4057C24.2903 18.4057 25.3395 18.8403 26.1131 19.6139C26.8867 20.3875 27.3213 21.4367 27.3213 22.5307Z" fill="#D65E5E"/>
</svg>