<svg width="115" height="113" viewBox="0 0 115 113" fill="none" xmlns="http://www.w3.org/2000/svg">
<ellipse cx="57.5" cy="56.5" rx="57.5" ry="56.5" fill="#131313"/>
<path d="M30.4167 85C30.4167 85 25 85 25 79.4167C25 73.8333 30.4167 57.0833 57.5 57.0833C84.5833 57.0833 90 73.8333 90 79.4167C90 85 84.5833 85 84.5833 85H30.4167ZM57.5 51.5C61.8098 51.5 65.943 49.7353 68.9905 46.594C72.038 43.4528 73.75 39.1924 73.75 34.75C73.75 30.3076 72.038 26.0472 68.9905 22.906C65.943 19.7647 61.8098 18 57.5 18C53.1902 18 49.057 19.7647 46.0095 22.906C42.962 26.0472 41.25 30.3076 41.25 34.75C41.25 39.1924 42.962 43.4528 46.0095 46.594C49.057 49.7353 53.1902 51.5 57.5 51.5Z" fill="#4839A4"/>
</svg>
